<?xml version="1.0" standalone="no"?>
<!DOCTYPE svg PUBLIC "-//W3C//DTD SVG 20010904//EN"
 "http://www.w3.org/TR/2001/REC-SVG-20010904/DTD/svg10.dtd">
<svg version="1.0" xmlns="http://www.w3.org/2000/svg"
 width="1000.000000pt" height="1000.000000pt" viewBox="0 0 1000.000000 1000.000000"
 preserveAspectRatio="xMidYMid meet">
<metadata>
Created by potrace 1.14, written by Peter Selinger 2001-2017
</metadata>
<g transform="translate(0.000000,1000.000000) scale(0.100000,-0.100000)"
fill="#000000" stroke="none">
<path d="M4620 9989 c-207 -17 -611 -76 -640 -94 -7 -4 -10 -674 -10 -1926 l0
-1919 -1929 0 c-1711 0 -1930 -2 -1935 -15 -10 -26 -55 -294 -70 -420 -37
-293 -47 -695 -26 -976 13 -164 45 -414 68 -529 l17 -85 1938 -3 1937 -2 0
-1954 c0 -1218 4 -1957 9 -1961 32 -19 438 -78 660 -95 173 -13 549 -13 722 0
156 12 391 42 534 68 l100 18 3 1962 2 1962 1953 2 1952 3 17 85 c86 427 102
1022 42 1505 -15 126 -60 394 -70 420 -5 13 -225 15 -1950 15 l-1944 0 -2
1927 -3 1927 -100 18 c-143 26 -378 56 -534 68 -156 12 -587 11 -741 -1z"/>
<path d="M6660 8361 c0 -743 3 -1352 8 -1354 6 -4 2218 1096 2234 1112 11 10
-173 223 -336 389 -441 449 -965 812 -1541 1067 -148 66 -328 135 -350 135
-13 0 -15 -162 -15 -1349z"/>
<path d="M3155 9651 c-661 -266 -1233 -646 -1721 -1143 -146 -149 -344 -375
-344 -393 0 -12 2201 -1115 2213 -1108 4 2 7 609 7 1349 0 1273 -1 1344 -17
1344 -10 -1 -72 -22 -138 -49z"/>
<path d="M7983 7292 c-612 -306 -1118 -563 -1125 -570 -10 -10 132 -12 747
-10 l760 3 542 273 c298 150 544 276 547 280 14 23 -326 584 -352 581 -4 0
-507 -251 -1119 -557z"/>
<path d="M531 7246 c-30 -36 -233 -514 -225 -528 3 -4 300 -8 660 -8 525 0
653 2 642 13 -7 6 -238 124 -513 261 -275 137 -512 255 -526 262 -22 11 -29
11 -38 0z"/>
<path d="M1610 3350 c-23 -7 -1089 -538 -1100 -547 -12 -11 247 -469 315 -559
l26 -33 1128 564 c621 310 1132 569 1136 574 7 13 -1466 14 -1505 1z"/>
<path d="M8362 3347 c17 -16 1102 -557 1117 -557 6 0 32 44 57 98 51 110 169
403 180 445 l6 27 -687 0 c-550 0 -684 -2 -673 -13z"/>
<path d="M2168 2506 c-615 -308 -1118 -565 -1118 -571 0 -19 226 -281 373
-432 445 -456 971 -821 1552 -1078 151 -67 301 -125 321 -125 12 0 14 195 12
1382 -2 911 -6 1382 -13 1383 -5 1 -513 -251 -1127 -559z"/>
<path d="M6667 3064 c-4 -4 -7 -630 -7 -1391 0 -1217 2 -1383 15 -1383 22 0
202 69 350 135 582 258 1107 622 1552 1078 164 168 377 418 365 428 -4 4 -513
261 -1132 571 -619 309 -1128 564 -1131 565 -3 2 -8 0 -12 -3z"/>
</g>
</svg>
